<svg xmlns="http://www.w3.org/2000/svg" width="64" height="64" viewBox="0 0 64 64" fill="none">
  <path d="M18 28h18c4 0 7 3 7 7v6" stroke="#003A85" stroke-width="2.6" stroke-linecap="round" stroke-linejoin="round"/>
  <path d="M18 28v-6c0-3 2-5 5-5h10c3 0 5 2 5 5v6" stroke="#003A85" stroke-width="2.6" stroke-linejoin="round"/>
  <path d="M43 36h8c2 0 3 1 3 3v2c0 2-1 3-3 3h-8" stroke="#003A85" stroke-width="2.6" stroke-linejoin="round"/>
  <path d="M49 44c0 5-4 9-9 9s-9-4-9-9c0-4 5-9 9-14 4 5 9 10 9 14z" stroke="#003A85" stroke-width="2.6" stroke-linejoin="round" opacity=".9"/>
</svg>
