<svg xmlns="http://www.w3.org/2000/svg" width="64" height="64" viewBox="0 0 64 64" fill="none">
  <path d="M22 34c0-8 6-14 14-14s14 6 14 14" stroke="#003A85" stroke-width="2.6" stroke-linecap="round"/>
  <path d="M18 34h40" stroke="#003A85" stroke-width="2.6" stroke-linecap="round"/>
  <path d="M22 34c0 7 6 12 14 12s14-5 14-12" stroke="#003A85" stroke-width="2.6" stroke-linecap="round" opacity=".9"/>
  <path d="M26 46c-2 3-5 6-8 6" stroke="#003A85" stroke-width="2.6" stroke-linecap="round"/>
  <path d="M46 46c2 3 5 6 8 6" stroke="#003A85" stroke-width="2.6" stroke-linecap="round"/>
  <path d="M41 18l2.1 4.2 4.6.7-3.3 3.2.8 4.6-4.2-2.2-4.2 2.2.8-4.6-3.3-3.2 4.6-.7L41 18z" stroke="#003A85" stroke-width="2.2" stroke-linejoin="round"/>
</svg>
