<svg xmlns="http://www.w3.org/2000/svg" width="64" height="64" viewBox="0 0 64 64" fill="none">
  <path d="M18 44c10-10 18-10 28 0" stroke="#003A85" stroke-width="2.6" stroke-linecap="round"/>
  <path d="M22 40c9-9 15-9 24 0" stroke="#003A85" stroke-width="2.6" stroke-linecap="round" opacity=".9"/>
  <path d="M26 36c7-7 11-7 18 0" stroke="#003A85" stroke-width="2.6" stroke-linecap="round" opacity=".85"/>
  <path d="M30 32c5-5 7-5 12 0" stroke="#003A85" stroke-width="2.6" stroke-linecap="round" opacity=".8"/>
  <path d="M16 46c-2.5 2.5-2.5 6.5 0 9s6.5 2.5 9 0c7.5-7.5 14.5-11 23-11" stroke="#003A85" stroke-width="2.6" stroke-linecap="round" stroke-linejoin="round"/>
  <path d="M44 33l3-3" stroke="#003A85" stroke-width="2.6" stroke-linecap="round"/>
  <path d="M47 36l3-3" stroke="#003A85" stroke-width="2.6" stroke-linecap="round" opacity=".8"/>
</svg>
